HIERARCHY
ROOT joint_0
{
	OFFSET 0.000000 0.000000 0.000000
	CHANNELS 6 Xposition Yposition Zposition Zrotation Yrotation Xrotation 
	JOINT joint_1
	{
		OFFSET 6.004005 -1.946999 100.587036
		CHANNELS 3 Zrotation Yrotation Xrotation
		JOINT joint_2
		{
			OFFSET -4.601006 -0.824997 91.925903
			CHANNELS 3 Zrotation Yrotation Xrotation
			JOINT joint_3
			{
				OFFSET -5.420998 -1.130005 91.774048
				CHANNELS 3 Zrotation Yrotation Xrotation
				JOINT joint_4
				{
					OFFSET 4.308998 -3.777992 123.473999
					CHANNELS 3 Zrotation Yrotation Xrotation
					JOINT joint_5
					{
						OFFSET 25.565002 -6.305008 79.437988
						CHANNELS 3 Zrotation Yrotation Xrotation
						End Site
						{
							OFFSET 0.000000 0.000000 0.000000
						}
					}
				}
				JOINT joint_6
				{
					OFFSET -1.750000 -28.655998 68.557983
					CHANNELS 3 Zrotation Yrotation Xrotation
					JOINT joint_7
					{
						OFFSET -17.692001 -116.544006 -17.244019
						CHANNELS 3 Zrotation Yrotation Xrotation
						JOINT joint_8
						{
							OFFSET 27.063004 -23.640991 -266.895020
							CHANNELS 3 Zrotation Yrotation Xrotation
							JOINT joint_9
							{
								OFFSET 40.722000 -15.761017 -232.488953
								CHANNELS 3 Zrotation Yrotation Xrotation
								End Site
								{
									OFFSET 0.000000 0.000000 0.000000
								}
							}
						}
					}
				}
				JOINT joint_10
				{
					OFFSET 6.593002 24.457001 69.892944
					CHANNELS 3 Zrotation Yrotation Xrotation
					JOINT joint_11
					{
						OFFSET 24.311996 114.920002 -19.872925
						CHANNELS 3 Zrotation Yrotation Xrotation
						JOINT joint_12
						{
							OFFSET 21.081001 15.319000 -268.037964
							CHANNELS 3 Zrotation Yrotation Xrotation
							JOINT joint_13
							{
								OFFSET 27.794006 -8.947001 -234.744080
								CHANNELS 3 Zrotation Yrotation Xrotation
								End Site
								{
									OFFSET 0.000000 0.000000 0.000000
								}
							}
						}
					}
				}
			}
		}
	}
	JOINT joint_14
	{
		OFFSET -6.627998 -80.520004 -98.790039
		CHANNELS 3 Zrotation Yrotation Xrotation
		JOINT joint_15
		{
			OFFSET -43.638000 -13.751999 -502.538971
			CHANNELS 3 Zrotation Yrotation Xrotation
			JOINT joint_16
			{
				OFFSET -39.532999 -9.912994 -398.071007
				CHANNELS 3 Zrotation Yrotation Xrotation
				JOINT joint_17
				{
					OFFSET 174.940004 -34.660995 -75.688002
					CHANNELS 3 Zrotation Yrotation Xrotation
					End Site
					{
						OFFSET 0.000000 0.000000 0.000000
					}
				}
			}
		}
	}
	JOINT joint_18
	{
		OFFSET 12.591003 79.842003 -98.765015
		CHANNELS 3 Zrotation Yrotation Xrotation
		JOINT joint_19
		{
			OFFSET -39.080002 -1.297001 -503.101013
			CHANNELS 3 Zrotation Yrotation Xrotation
			JOINT joint_20
			{
				OFFSET -51.570000 -0.514000 -396.815987
				CHANNELS 3 Zrotation Yrotation Xrotation
				JOINT joint_21
				{
					OFFSET 178.987999 -11.521999 -73.244003
					CHANNELS 3 Zrotation Yrotation Xrotation
					End Site
					{
						OFFSET 0.000000 0.000000 0.000000
					}
				}
			}
		}
	}
}
MOTION
Frames: 13
Frame Time: 0.016667
55.124000 -131.162000 1095.463990 -2.561896 -2.178935 -0.759464 0.607996 -0.107488 1.317434 0.526963 -0.055533 -0.340466 0.563857 0.075091 0.243325 0.101881 0.139828 -0.281113 0.000000 0.000000 0.000000 1.238340 0.713369 1.058797 -0.290251 1.211203 -0.733331 -0.189700 -0.536406 -1.291461 0.000000 0.000000 0.000000 -0.518027 0.646650 0.396858 0.039939 1.082024 -1.204472 0.201179 -0.037474 1.677913 0.000000 0.000000 0.000000 -0.642813 1.073493 -0.894711 -0.921299 4.559184 1.200703 -0.597350 -2.134845 -0.680670 0.000000 0.000000 0.000000 1.039097 -0.232236 3.149970 1.277994 3.683770 -0.066282 1.219636 -1.150566 0.423387 0.000000 0.000000 0.000000 
55.504000 -131.603000 1095.484990 -2.478029 -2.031249 -0.760328 0.703216 -0.116334 1.246157 0.626350 -0.064456 -0.329828 0.662365 0.078654 0.236676 0.071619 -0.002062 -0.222459 0.000000 0.000000 0.000000 0.690256 0.804448 1.198537 -0.298797 1.259445 -0.838561 -0.156808 -0.693132 -1.164835 0.000000 0.000000 0.000000 -0.637277 0.624493 0.409676 0.049775 1.073129 -1.148926 0.200188 -0.117624 1.646053 0.000000 0.000000 0.000000 -0.670630 0.982081 -0.868571 -0.948221 4.484349 1.211252 -0.623132 -2.129771 -0.690811 0.000000 0.000000 0.000000 1.012774 -0.353589 3.188115 1.256826 3.623073 -0.097248 1.195583 -1.124100 0.415298 0.000000 0.000000 0.000000 
57.205000 -132.440000 1095.713990 -2.243387 -1.593268 -0.727207 0.813411 -0.230317 1.120228 0.747918 -0.013951 -0.251414 0.773802 0.001827 0.174940 0.039131 -0.536144 -0.253839 0.000000 0.000000 0.000000 0.560974 1.382307 0.931113 -0.308530 1.691554 -0.258749 -0.119155 -1.633276 -1.311697 0.000000 0.000000 0.000000 -0.437474 0.624689 0.776041 0.059773 1.173130 -1.409832 0.195109 -0.448754 1.502347 0.000000 0.000000 0.000000 -0.736387 0.784431 -0.876488 -1.017264 4.168294 1.275600 -0.688938 -2.079692 -0.709371 0.000000 0.000000 0.000000 0.925191 -0.656749 3.227545 1.178331 3.402662 -0.179485 1.110354 -1.054429 0.385098 0.000000 0.000000 0.000000 
59.910000 -133.605000 1096.109010 -1.886149 -0.933860 -0.664273 0.944359 -0.411392 0.952508 0.895829 0.077628 -0.118282 0.903997 -0.132559 0.062357 0.008550 -1.383782 -0.370553 0.000000 0.000000 0.000000 0.688159 2.327760 0.430926 -0.323578 2.421337 0.806430 -0.080502 -3.195513 -1.677928 0.000000 0.000000 0.000000 0.014902 0.631312 1.401480 0.067730 1.334450 -1.879416 0.182426 -0.954199 1.241510 0.000000 0.000000 0.000000 -0.831947 0.512045 -0.908301 -1.118360 3.655795 1.378959 -0.786719 -1.987089 -0.733347 0.000000 0.000000 0.000000 0.786405 -1.097699 3.268303 1.051860 3.054534 -0.301216 0.974168 -0.943787 0.336750 0.000000 0.000000 0.000000 
63.323000 -134.880000 1096.529050 -1.506900 -0.125440 -0.581041 1.016358 -0.692635 0.762939 0.985383 0.160539 -0.006139 0.978243 -0.260289 -0.036168 -0.020175 -2.311925 -0.517974 0.000000 0.000000 0.000000 0.959394 3.203988 0.055662 -0.345014 3.141659 1.752119 -0.067743 -4.514147 -2.074793 0.000000 0.000000 0.000000 0.489280 0.759894 2.025532 0.096021 1.607810 -2.301805 0.169228 -1.609968 0.938632 0.000000 0.000000 0.000000 -0.955232 0.095127 -0.940928 -1.251179 3.173782 1.470768 -0.917419 -1.875699 -0.767779 0.000000 0.000000 0.000000 0.670598 -1.660532 3.330775 0.953520 2.687512 -0.469281 0.858518 -0.785225 0.299802 0.000000 0.000000 0.000000 
67.428000 -136.139010 1096.885010 -1.170993 0.890998 -0.471847 0.955544 -1.182424 0.539841 0.941071 0.211212 0.029778 0.927937 -0.352850 -0.071103 -0.059277 -3.243624 -0.637268 0.000000 0.000000 0.000000 1.392614 3.763093 -0.029645 -0.368993 3.687468 2.208981 -0.080327 -5.056268 -2.322219 0.000000 0.000000 0.000000 0.872821 1.168957 2.488620 0.179095 2.113586 -2.534420 0.165866 -2.621575 0.632930 0.000000 0.000000 0.000000 -1.121774 -0.565266 -0.973955 -1.433110 2.747773 1.529406 -1.100142 -1.724771 -0.816779 0.000000 0.000000 0.000000 0.636414 -2.373411 3.450177 0.950210 2.223131 -0.752686 0.817668 -0.515799 0.300438 0.000000 0.000000 0.000000 
72.333000 -137.465000 1097.229980 -0.836930 2.140506 -0.332632 0.791277 -1.862541 0.286289 0.793060 0.250409 0.009994 0.780021 -0.444520 -0.062799 -0.110422 -4.272270 -0.743788 0.000000 0.000000 0.000000 2.032520 4.172067 0.039926 -0.393309 4.176551 2.405900 -0.106832 -5.147539 -2.487343 0.000000 0.000000 0.000000 1.257202 1.828531 2.844431 0.302639 2.825535 -2.628080 0.166430 -4.000386 0.295418 0.000000 0.000000 0.000000 -1.333165 -1.438952 -1.009911 -1.664867 2.286737 1.573844 -1.335861 -1.513515 -0.876615 0.000000 0.000000 0.000000 0.657510 -3.240476 3.621102 1.015756 1.618068 -1.156142 0.825825 -0.120735 0.329074 0.000000 0.000000 0.000000 
77.283000 -138.780000 1097.547000 -0.510064 3.157127 -0.227508 0.626041 -2.369835 0.101368 0.638370 0.272778 -0.023520 0.627097 -0.514388 -0.047959 -0.151174 -5.047672 -0.816391 0.000000 0.000000 0.000000 2.619555 4.381265 0.139808 -0.407542 4.479963 2.475289 -0.174802 -4.728354 -2.711102 0.000000 0.000000 0.000000 1.418914 2.386180 3.066865 0.381890 3.406475 -2.569812 0.170676 -4.815020 0.143388 0.000000 0.000000 0.000000 -1.511954 -2.304706 -0.986376 -1.869936 2.360943 1.567745 -1.534897 -1.445043 -0.948668 0.000000 0.000000 0.000000 0.688312 -4.102620 3.734282 1.072109 1.558844 -1.383036 0.849463 0.118151 0.353908 0.000000 0.000000 0.000000 
81.882000 -140.056000 1097.831050 -0.189620 3.601056 -0.206837 0.525414 -2.478274 0.043249 0.541386 0.278820 -0.025277 0.529756 -0.521393 -0.053685 -0.155531 -5.290762 -0.867893 0.000000 0.000000 0.000000 2.958580 4.311875 0.192309 -0.402636 4.464170 2.499114 -0.327505 -3.508452 -3.126632 0.000000 0.000000 0.000000 1.145321 2.581788 3.163409 0.362339 3.625618 -2.363155 0.180739 -4.265778 0.336262 0.000000 0.000000 0.000000 -1.602349 -3.018620 -0.853274 -1.992062 3.441970 1.467957 -1.633854 -1.655498 -1.032385 0.000000 0.000000 0.000000 0.694332 -4.839676 3.687142 1.055882 2.553283 -1.158292 0.866084 0.018057 0.354017 0.000000 0.000000 0.000000 
86.425000 -141.323000 1098.089970 0.123274 3.658318 -0.248700 0.452041 -2.342080 0.070565 0.467476 0.275445 -0.007780 0.454853 -0.466902 -0.065797 -0.132848 -5.139263 -0.902027 0.000000 0.000000 0.000000 3.156528 3.983768 0.248631 -0.390136 4.184373 2.412499 -0.559420 -1.513612 -3.673085 0.000000 0.000000 0.000000 0.517358 2.551174 3.137878 0.268704 3.610172 -2.011170 0.187222 -2.696528 0.773191 0.000000 0.000000 0.000000 -1.633527 -3.673593 -0.639264 -2.060768 5.305965 1.297763 -1.673350 -2.008227 -1.117887 0.000000 0.000000 0.000000 0.695284 -5.515515 3.515514 0.998647 4.323660 -0.581630 0.895394 -0.253773 0.348052 0.000000 0.000000 0.000000 
90.401000 -142.468000 1098.291990 0.390185 3.517935 -0.317414 0.404436 -2.010509 0.117897 0.416693 0.269827 0.012397 0.403490 -0.403705 -0.069340 -0.115139 -4.792334 -0.868346 0.000000 0.000000 0.000000 3.280730 3.554165 0.283686 -0.396817 3.812280 2.188859 -0.769743 0.198793 -4.156793 0.000000 0.000000 0.000000 -0.222061 2.352126 3.118356 0.148972 3.456402 -1.726244 0.197143 -0.956052 1.358387 0.000000 0.000000 0.000000 -1.625082 -4.323475 -0.441952 -2.104605 7.554221 1.160255 -1.683834 -2.443029 -1.206163 0.000000 0.000000 0.000000 0.701613 -6.245886 3.326583 0.940105 6.618723 0.076623 0.947137 -0.707931 0.339098 0.000000 0.000000 0.000000 
92.968000 -143.330990 1098.468990 0.622356 3.266709 -0.402134 0.383820 -1.401633 0.182845 0.388211 0.274646 0.013462 0.376124 -0.366000 -0.053808 -0.126070 -4.401179 -0.733221 0.000000 0.000000 0.000000 3.407650 3.084741 0.243696 -0.427674 3.409563 1.854083 -0.890849 0.937332 -4.508863 0.000000 0.000000 0.000000 -1.009749 1.925997 3.254696 0.036143 3.194616 -1.800720 0.247545 0.480337 2.229239 0.000000 0.000000 0.000000 -1.577313 -5.130380 -0.328607 -2.145183 10.237401 1.130151 -1.679591 -3.009341 -1.312787 0.000000 0.000000 0.000000 0.703420 -7.259688 3.191612 0.887404 9.617796 0.661521 1.019559 -1.450621 0.319209 0.000000 0.000000 0.000000 
94.320000 -143.955990 1098.633060 0.828341 2.841946 -0.532933 0.391330 -0.509277 0.320217 0.384022 0.297030 -0.012453 0.375079 -0.340555 -0.024555 -0.155477 -3.890598 -0.509201 0.000000 0.000000 0.000000 3.515734 2.516862 0.141773 -0.470125 2.914668 1.409627 -0.961696 1.107430 -4.809244 0.000000 0.000000 0.000000 -1.935548 1.252939 3.504973 -0.090297 2.787292 -2.137788 0.333942 1.952139 3.402702 0.000000 0.000000 0.000000 -1.477596 -6.079042 -0.248371 -2.167642 13.481264 1.178901 -1.656301 -3.586625 -1.411320 0.000000 0.000000 0.000000 0.701978 -8.512647 3.084069 0.828831 13.376993 1.274944 1.127190 -2.286127 0.305886 0.000000 0.000000 0.000000 
